<?xml version="1.0" standalone="no"?>
<!DOCTYPE svg PUBLIC "-//W3C//DTD SVG 20010904//EN"
 "http://www.w3.org/TR/2001/REC-SVG-20010904/DTD/svg10.dtd">
<svg version="1.0" xmlns="http://www.w3.org/2000/svg"
 width="1280.000000pt" height="640.000000pt" viewBox="0 0 1280.000000 640.000000"
 preserveAspectRatio="xMidYMid meet">
<metadata>
Created by potrace 1.15, written by Peter Selinger 2001-2017
</metadata>
<g transform="translate(0.000000,640.000000) scale(0.100000,-0.100000)"
fill="#000000" stroke="none">
<path d="M5946 5884 c-20 -20 -20 -48 0 -79 15 -23 15 -24 -18 -29 -117 -18
-199 -21 -220 -9 -13 7 -58 26 -100 43 -81 32 -136 38 -156 18 -16 -16 -15
-59 2 -84 14 -20 12 -21 -99 -38 l-114 -17 -69 35 c-96 48 -178 71 -208 57
-37 -16 -41 -55 -10 -95 30 -40 34 -37 -74 -56 -64 -11 -66 -11 -141 24 -106
49 -164 61 -195 41 -30 -19 -31 -54 -3 -89 12 -15 19 -29 17 -31 -2 -3 -39
-12 -81 -21 l-76 -15 -73 34 c-85 39 -162 60 -189 52 -43 -14 -44 -71 -2 -118
9 -9 14 -18 12 -20 -2 -2 -37 -11 -78 -20 l-74 -17 -83 35 c-96 42 -157 45
-180 9 -12 -17 -11 -25 6 -59 11 -22 20 -40 20 -41 0 -1 -29 -10 -65 -19 l-65
-18 -79 36 c-107 49 -159 60 -188 41 -31 -20 -30 -64 2 -102 14 -17 25 -32 25
-35 0 -3 -45 -20 -100 -38 l-100 -33 -47 17 c-109 39 -162 9 -130 -73 4 -11
-18 -32 -76 -71 l-82 -56 1 -50 c3 -126 148 -340 440 -652 54 -58 81 -99 116
-172 25 -53 67 -122 92 -154 26 -32 55 -73 64 -91 15 -32 19 -34 68 -34 45 0
54 -4 69 -26 9 -14 15 -28 12 -30 -10 -10 -125 -24 -282 -34 -340 -21 -577
-46 -628 -66 -8 -3 -63 52 -143 143 -71 81 -239 261 -374 400 -439 454 -593
616 -720 762 -185 213 -339 334 -522 413 -121 52 -222 67 -298 45 -74 -22
-113 -48 -149 -98 -54 -73 -73 -141 -79 -271 -6 -144 7 -272 59 -588 102 -623
103 -798 8 -1085 -47 -140 -115 -273 -264 -515 -193 -313 -276 -500 -305 -685
-6 -38 -11 -171 -13 -295 -2 -209 0 -232 22 -315 43 -167 131 -307 232 -371
95 -60 217 -67 340 -21 84 32 1194 589 1518 761 139 75 299 167 355 204 55 38
129 85 162 105 l62 37 98 -14 c55 -9 147 -18 206 -21 l106 -7 -97 -97 c-107
-107 -197 -234 -242 -340 -112 -266 40 -639 347 -851 121 -84 233 -124 474
-169 277 -53 483 -69 1021 -81 449 -10 501 -7 619 35 80 28 209 103 285 165
l75 61 108 -40 c179 -66 263 -86 552 -136 132 -23 203 -34 504 -80 55 -8 114
-15 132 -15 18 0 36 -4 39 -10 3 -5 2 -10 -4 -10 -20 0 -43 -61 -36 -96 11
-62 83 -100 248 -131 168 -32 654 -19 847 22 36 8 137 36 225 63 l160 49 450
6 c822 12 1444 65 2290 197 447 70 819 242 1210 559 219 178 435 385 435 417
0 12 11 46 25 76 33 71 32 102 -6 140 -38 39 -47 77 -24 112 12 18 15 36 11
61 -9 47 -52 79 -136 100 -17 4 -76 68 -180 196 -389 478 -695 784 -1289 1289
-107 91 -246 216 -310 278 -74 72 -123 112 -137 112 -12 0 -32 8 -45 19 -128
100 -465 262 -731 351 l-126 42 -48 72 c-120 181 -312 386 -477 510 -152 113
-429 270 -577 326 -19 8 -81 40 -138 73 -139 79 -196 104 -303 133 -108 29
-99 28 -99 7 0 -38 -12 -42 -90 -27 -41 8 -112 21 -157 29 -55 10 -114 29
-175 59 -51 25 -119 52 -151 61 -53 15 -60 15 -82 1 -16 -11 -25 -26 -25 -42
0 -24 -3 -26 -32 -20 -18 3 -85 8 -148 12 -94 6 -124 11 -165 32 -64 32 -152
62 -182 62 -31 0 -66 -36 -58 -61 6 -18 1 -19 -109 -19 -99 0 -123 3 -168 23
-131 58 -192 57 -204 -1 -6 -29 -8 -29 -86 -35 -74 -6 -83 -5 -137 23 -71 35
-172 70 -205 70 -14 0 -32 -7 -40 -16z m2071 -5220 c-3 -3 -12 -4 -19 -1 -8 3
-5 6 6 6 11 1 17 -2 13 -5z"/>
</g>
</svg>
