<?xml version="1.0" standalone="no"?>
<!DOCTYPE svg PUBLIC "-//W3C//DTD SVG 20010904//EN"
 "http://www.w3.org/TR/2001/REC-SVG-20010904/DTD/svg10.dtd">
<svg version="1.0" xmlns="http://www.w3.org/2000/svg"
 width="1280.000000pt" height="840.000000pt" viewBox="0 0 1280.000000 840.000000"
 preserveAspectRatio="xMidYMid meet">
<metadata>
Created by potrace 1.15, written by Peter Selinger 2001-2017
</metadata>
<g transform="translate(0.000000,840.000000) scale(0.100000,-0.100000)"
fill="#000000" stroke="none">
<path d="M8830 8390 c-247 -24 -587 -76 -920 -141 -648 -126 -1736 -402 -2390
-605 -169 -53 -283 -77 -470 -98 -197 -23 -200 -24 -630 -56 -217 -17 -411
-33 -430 -36 l-35 -6 -28 81 c-57 162 -166 362 -264 484 -95 118 -202 159
-418 159 -189 0 -327 -42 -399 -122 -53 -59 -62 -102 -42 -192 24 -104 31
-251 16 -334 -16 -89 -62 -209 -138 -360 l-61 -122 -135 -70 c-289 -152 -697
-394 -1026 -610 -440 -289 -606 -439 -677 -615 -14 -34 -26 -63 -27 -65 -2 -1
-47 5 -101 14 -82 14 -113 15 -189 5 -106 -13 -169 -29 -161 -40 2 -5 30 -3
61 5 97 22 179 27 267 14 46 -6 88 -15 94 -18 6 -4 12 -36 15 -72 l4 -65 -171
0 c-151 0 -182 -3 -275 -27 -145 -37 -303 -98 -289 -112 2 -3 51 12 107 34
155 58 268 82 414 88 70 2 148 1 173 -2 l45 -7 0 -47 0 -47 -113 -1 c-133 0
-203 -21 -306 -88 -68 -45 -149 -121 -139 -131 3 -3 28 16 56 42 61 59 159
118 232 141 52 16 261 25 273 12 3 -3 8 -24 12 -46 l6 -42 -53 -7 c-86 -11
-197 -53 -271 -102 -100 -66 -184 -182 -174 -238 3 -20 4 -20 11 0 62 173 223
291 434 320 l52 7 0 -39 c1 -52 40 -159 83 -224 74 -111 249 -265 409 -361
l66 -39 18 -97 c19 -103 25 -300 11 -389 -10 -67 9 -72 20 -5 13 74 7 309 -10
392 -8 41 -14 76 -12 78 2 2 39 -15 82 -37 l80 -40 26 -73 c80 -228 118 -405
120 -560 1 -60 5 -108 10 -108 16 0 12 170 -9 295 -16 98 -59 260 -99 368 -13
38 -21 67 -17 65 4 -2 58 -23 119 -47 l113 -45 15 -50 c8 -28 25 -97 37 -153
21 -94 38 -132 38 -84 0 19 -53 233 -65 263 -6 14 14 10 112 -23 65 -22 134
-44 154 -49 32 -9 41 -18 69 -78 44 -91 85 -205 100 -277 13 -58 25 -84 34
-74 15 14 -49 206 -131 398 -4 10 -2 13 8 9 8 -3 86 -22 174 -42 308 -72 363
-94 663 -268 308 -177 476 -252 827 -368 105 -35 192 -64 194 -66 9 -8 -11
-16 -140 -55 -200 -60 -278 -103 -231 -128 9 -5 53 -12 96 -16 135 -12 134
-14 -45 -90 -146 -61 -170 -75 -222 -126 -48 -46 -58 -62 -55 -84 2 -17 11
-31 23 -35 26 -9 127 12 204 43 33 14 61 24 61 23 0 -2 -23 -27 -50 -57 -68
-73 -118 -149 -141 -214 -24 -69 -24 -92 1 -105 42 -23 119 27 410 264 58 47
108 86 113 86 4 0 -17 -49 -48 -108 -30 -59 -55 -120 -55 -135 0 -23 4 -27 28
-27 16 0 71 22 123 48 160 81 171 90 222 189 49 96 97 225 117 315 7 32 15 58
17 58 11 0 121 -61 130 -72 5 -7 13 -23 16 -35 4 -20 -14 -217 -28 -304 l-6
-36 -145 -15 c-167 -17 -190 -28 -164 -76 9 -15 38 -39 65 -54 28 -15 47 -28
44 -28 -32 -1 -238 -63 -267 -81 -78 -47 -162 -147 -162 -195 0 -50 17 -50
233 -6 231 48 247 49 247 24 0 -23 -13 -39 -72 -85 -71 -57 -110 -144 -115
-262 -4 -71 -2 -94 11 -110 15 -20 15 -20 58 4 50 28 265 188 391 291 49 40
90 70 91 69 2 -2 -2 -40 -10 -84 -28 -171 -13 -277 40 -291 43 -11 81 20 132
108 128 224 236 365 389 508 182 171 290 232 700 397 423 170 530 228 690 374
201 183 328 222 606 185 181 -24 177 -24 264 -14 157 19 310 74 640 231 212
100 288 127 364 127 78 -1 127 -26 190 -99 60 -69 130 -120 236 -173 75 -38
224 -96 317 -124 l57 -17 -20 -29 c-37 -51 -97 -192 -118 -278 -27 -107 -38
-292 -22 -343 29 -87 97 -24 237 218 49 84 90 152 91 151 2 -1 -19 -56 -46
-122 -62 -149 -77 -227 -62 -324 13 -83 27 -110 58 -110 31 0 54 38 103 170
24 63 59 151 78 195 19 44 41 95 49 114 8 18 16 31 18 29 3 -3 -25 -92 -61
-199 -72 -214 -88 -294 -60 -305 46 -18 226 159 312 305 46 79 90 233 103 361
l6 65 85 8 c166 15 287 60 378 142 66 59 112 125 242 340 56 94 128 206 159
250 87 123 156 242 231 398 118 247 177 458 200 711 17 181 2 360 -57 678
l-36 198 26 54 c80 162 85 382 17 652 -76 301 -205 527 -427 748 -314 313
-871 599 -1429 732 -136 32 -164 36 -329 39 -99 2 -223 0 -275 -5z"/>
</g>
</svg>
