<?xml version="1.0" standalone="no"?>
<!DOCTYPE svg PUBLIC "-//W3C//DTD SVG 20010904//EN"
 "http://www.w3.org/TR/2001/REC-SVG-20010904/DTD/svg10.dtd">
<svg version="1.0" xmlns="http://www.w3.org/2000/svg"
 width="1280.000000pt" height="977.000000pt" viewBox="0 0 1280.000000 977.000000"
 preserveAspectRatio="xMidYMid meet">
<metadata>
Created by potrace 1.15, written by Peter Selinger 2001-2017
</metadata>
<g transform="translate(0.000000,977.000000) scale(0.100000,-0.100000)"
fill="#000000" stroke="none">
<path d="M10460 9756 c-175 -38 -307 -110 -435 -240 -95 -96 -147 -174 -176
-260 -16 -47 -23 -55 -96 -99 -327 -202 -603 -527 -826 -972 -207 -413 -357
-907 -414 -1359 -9 -72 -19 -134 -22 -137 -3 -4 -141 -16 -306 -28 -1150 -84
-1735 -171 -2290 -341 -449 -137 -889 -354 -1170 -577 -408 -323 -706 -799
-811 -1298 -20 -94 -27 -161 -31 -305 -9 -293 27 -481 132 -696 126 -260 335
-459 645 -614 412 -206 888 -290 1657 -290 449 0 830 43 1158 130 508 135 994
420 1391 815 199 198 363 486 529 924 16 42 44 92 64 114 34 38 37 39 84 34
26 -4 92 -21 147 -40 248 -85 435 -247 545 -472 59 -120 77 -201 76 -350 -1
-256 -79 -484 -213 -618 -51 -52 -83 -71 -280 -167 -789 -384 -1707 -623
-2764 -719 -436 -40 -572 -46 -1109 -45 -571 0 -740 8 -1150 60 -980 123
-1807 420 -2483 891 -158 111 -246 193 -311 291 -165 249 -202 624 -94 966 56
180 138 311 277 443 126 121 297 233 521 343 230 113 373 169 846 329 592 200
1069 416 1404 636 359 236 601 519 724 845 60 160 74 246 68 414 -7 205 -54
352 -170 529 -210 320 -564 549 -982 636 -278 57 -410 62 -1410 51 -383 -4
-457 -2 -570 13 -179 24 -301 50 -455 97 -201 60 -319 82 -467 88 -153 5 -216
-9 -258 -59 -77 -92 31 -301 240 -468 231 -184 529 -289 1020 -360 423 -61
674 -93 875 -111 124 -11 270 -27 325 -35 409 -59 603 -164 713 -384 47 -95
56 -194 24 -257 -90 -176 -361 -316 -857 -442 -237 -61 -354 -85 -745 -152
-555 -95 -666 -121 -914 -212 -576 -212 -1089 -534 -1461 -919 -363 -376 -554
-752 -632 -1244 -24 -153 -24 -540 0 -715 88 -627 336 -1209 706 -1654 385
-462 1121 -938 1871 -1209 651 -235 1681 -435 2630 -511 420 -34 599 -40 1125
-40 789 0 1412 44 2160 155 826 122 1491 325 2145 655 712 359 1276 819 1711
1394 221 293 352 632 411 1070 19 142 16 555 -5 705 -62 429 -181 775 -375
1089 -111 180 -324 427 -500 579 -475 412 -1080 680 -1964 872 l-78 16 0 57
c0 74 25 291 46 389 56 272 171 473 328 575 33 21 96 50 140 65 80 26 84 26
401 28 348 2 363 3 795 76 508 85 798 187 1007 354 282 226 293 570 26 815
-81 74 -196 133 -302 156 l-78 17 -28 66 c-58 134 -224 260 -516 392 -226 102
-479 178 -719 214 -148 23 -417 28 -500 11z m-2840 -5009 c0 -10 -378 -262
-470 -313 -212 -118 -449 -172 -795 -181 -139 -4 -213 -2 -244 7 l-44 11 34
23 c186 126 467 243 757 315 342 86 762 162 762 138z"/>
</g>
</svg>
